<?xml version="1.0" encoding="UTF-8" standalone="no"?>
<!DOCTYPE svg PUBLIC "-//W3C//DTD SVG 1.1//EN"
 "http://www.w3.org/Graphics/SVG/1.1/DTD/svg11.dtd">
<!-- Generated by graphviz version 2.26.3 (20100126.1600)
 -->
<!-- Title: main Pages: 1 -->
<svg width="1439pt" height="476pt"
 viewBox="0.00 0.00 1439.00 476.00" xmlns="http://www.w3.org/2000/svg" xmlns:xlink="http://www.w3.org/1999/xlink">
<g id="graph1" class="graph" transform="scale(1 1) rotate(0) translate(4 472)">
<title>main</title>
<polygon fill="white" stroke="white" points="-4,5 -4,-472 1436,-472 1436,5 -4,5"/>
<!-- 10825376 -->
<g id="node1" class="node"><title>10825376</title>
<ellipse fill="none" stroke="black" cx="27" cy="-378" rx="27" ry="18"/>
<text text-anchor="middle" x="27" y="-373.4" font-family="Times Roman,serif" font-size="14.00">Init</text>
</g>
<!-- 10826832 -->
<g id="node2" class="node"><title>10826832</title>
<ellipse fill="none" stroke="black" cx="262" cy="-378" rx="189.842" ry="18"/>
<text text-anchor="middle" x="262" y="-373.4" font-family="Times Roman,serif" font-size="14.00">Function Definition: y : (Int, Int, )&#45;&gt; Int</text>
</g>
<!-- 10827232 -->
<g id="node3" class="node"><title>10827232</title>
<ellipse fill="none" stroke="black" cx="442" cy="-162" rx="59.8749" ry="18"/>
<text text-anchor="middle" x="442" y="-157.4" font-family="Times Roman,serif" font-size="14.00">IntAtom: 0</text>
</g>
<!-- 10827408 -->
<g id="node4" class="node"><title>10827408</title>
<ellipse fill="none" stroke="black" cx="580" cy="-162" rx="59.8749" ry="18"/>
<text text-anchor="middle" x="580" y="-157.4" font-family="Times Roman,serif" font-size="14.00">IntAtom: 2</text>
</g>
<!-- 10827584 -->
<g id="node5" class="node"><title>10827584</title>
<ellipse fill="none" stroke="black" cx="510" cy="-234" rx="84.0232" ry="18"/>
<text text-anchor="middle" x="510" y="-229.4" font-family="Times Roman,serif" font-size="14.00">FunctionAtom:y</text>
</g>
<!-- 10827584&#45;&gt;10827232 -->
<g id="edge2" class="edge"><title>10827584&#45;&gt;10827232</title>
<path fill="none" stroke="black" d="M487.661,-216.571C478.532,-207.857 468.211,-197.144 459.617,-187.524"/>
<polygon fill="black" stroke="black" points="462.073,-185.015 452.869,-179.769 456.793,-189.61 462.073,-185.015"/>
</g>
<!-- 10827584&#45;&gt;10827232 -->
<g id="edge22" class="edge"><title>10827584&#45;&gt;10827232</title>
<path fill="none" stroke="black" d="M498.793,-215.831C491.145,-206.802 480.878,-195.77 471.121,-186.049"/>
<polygon fill="black" stroke="black" points="473.416,-183.399 463.811,-178.926 468.531,-188.412 473.416,-183.399"/>
</g>
<!-- 10827584&#45;&gt;10827408 -->
<g id="edge4" class="edge"><title>10827584&#45;&gt;10827408</title>
<path fill="none" stroke="black" d="M521.712,-215.831C529.61,-206.802 540.184,-195.77 550.211,-186.049"/>
<polygon fill="black" stroke="black" points="552.873,-188.348 557.719,-178.926 548.055,-183.27 552.873,-188.348"/>
</g>
<!-- 10827584&#45;&gt;10827408 -->
<g id="edge24" class="edge"><title>10827584&#45;&gt;10827408</title>
<path fill="none" stroke="black" d="M532.823,-216.571C542.288,-207.77 553.026,-196.93 561.939,-187.236"/>
<polygon fill="black" stroke="black" points="564.565,-189.55 568.638,-179.769 559.355,-184.876 564.565,-189.55"/>
</g>
<!-- 10827776 -->
<g id="node8" class="node"><title>10827776</title>
<ellipse fill="none" stroke="black" cx="678" cy="-234" rx="65.9119" ry="18"/>
<text text-anchor="middle" x="678" y="-229.4" font-family="Times Roman,serif" font-size="14.00">IntAtom: 10</text>
</g>
<!-- 10828928 -->
<g id="node9" class="node"><title>10828928</title>
<ellipse fill="none" stroke="black" cx="635" cy="-306" rx="73.1194" ry="18"/>
<text text-anchor="middle" x="635" y="-301.4" font-family="Times Roman,serif" font-size="14.00">Expression:+</text>
</g>
<!-- 10828928&#45;&gt;10827584 -->
<g id="edge26" class="edge"><title>10828928&#45;&gt;10827584</title>
<path fill="none" stroke="black" d="M601.207,-289.842C583.182,-280.097 561.171,-267.532 543.235,-256.789"/>
<polygon fill="black" stroke="black" points="544.638,-253.547 534.271,-251.362 541.013,-259.535 544.638,-253.547"/>
</g>
<!-- 10828928&#45;&gt;10827584 -->
<g id="edge6" class="edge"><title>10828928&#45;&gt;10827584</title>
<path fill="none" stroke="black" d="M611.217,-288.937C594.832,-278.885 572.73,-266.08 553.313,-255.361"/>
<polygon fill="black" stroke="black" points="554.776,-252.172 544.323,-250.445 551.417,-258.314 554.776,-252.172"/>
</g>
<!-- 10828928&#45;&gt;10827776 -->
<g id="edge28" class="edge"><title>10828928&#45;&gt;10827776</title>
<path fill="none" stroke="black" d="M639.898,-287.831C644.064,-279.497 649.868,-269.457 655.755,-260.316"/>
<polygon fill="black" stroke="black" points="658.725,-262.172 661.374,-251.913 652.906,-258.28 658.725,-262.172"/>
</g>
<!-- 10828928&#45;&gt;10827776 -->
<g id="edge8" class="edge"><title>10828928&#45;&gt;10827776</title>
<path fill="none" stroke="black" d="M651.545,-288.202C657.236,-280.043 663.337,-270.19 668.359,-261.136"/>
<polygon fill="black" stroke="black" points="671.56,-262.57 673.139,-252.093 665.371,-259.298 671.56,-262.57"/>
</g>
<!-- 10829392 -->
<g id="node12" class="node"><title>10829392</title>
<ellipse fill="none" stroke="black" cx="635" cy="-378" rx="165.022" ry="18"/>
<text text-anchor="middle" x="635" y="-373.4" font-family="Times Roman,serif" font-size="14.00">Derived Definition: mac : ()&#45;&gt; Int</text>
</g>
<!-- 10829392&#45;&gt;10828928 -->
<g id="edge10" class="edge"><title>10829392&#45;&gt;10828928</title>
<path fill="none" stroke="black" d="M635,-359.831C635,-352.131 635,-342.974 635,-334.417"/>
<polygon fill="black" stroke="black" points="638.5,-334.413 635,-324.413 631.5,-334.413 638.5,-334.413"/>
</g>
<!-- 10832640 -->
<g id="node14" class="node"><title>10832640</title>
<ellipse fill="none" stroke="black" cx="869" cy="-378" rx="50.9823" ry="18"/>
<text text-anchor="middle" x="869" y="-373.4" font-family="Times Roman,serif" font-size="14.00">Rule baz</text>
</g>
<!-- 10832464 -->
<g id="node16" class="node"><title>10832464</title>
<ellipse fill="none" stroke="black" cx="869" cy="-306" rx="50.9823" ry="18"/>
<text text-anchor="middle" x="869" y="-301.4" font-family="Times Roman,serif" font-size="14.00">Parblock</text>
</g>
<!-- 10832640&#45;&gt;10832464 -->
<g id="edge12" class="edge"><title>10832640&#45;&gt;10832464</title>
<path fill="none" stroke="black" d="M869,-359.831C869,-352.131 869,-342.974 869,-334.417"/>
<polygon fill="black" stroke="black" points="872.5,-334.413 869,-324.413 865.5,-334.413 872.5,-334.413"/>
</g>
<!-- 10830384 -->
<g id="node18" class="node"><title>10830384</title>
<ellipse fill="none" stroke="black" cx="869" cy="-234" rx="65.2386" ry="18"/>
<text text-anchor="middle" x="869" y="-229.4" font-family="Times Roman,serif" font-size="14.00">Statements</text>
</g>
<!-- 10832464&#45;&gt;10830384 -->
<g id="edge14" class="edge"><title>10832464&#45;&gt;10830384</title>
<path fill="none" stroke="black" d="M869,-287.831C869,-280.131 869,-270.974 869,-262.417"/>
<polygon fill="black" stroke="black" points="872.5,-262.413 869,-252.413 865.5,-262.413 872.5,-262.413"/>
</g>
<!-- 10830192 -->
<g id="node20" class="node"><title>10830192</title>
<ellipse fill="none" stroke="black" cx="718" cy="-162" rx="32.8702" ry="18"/>
<text text-anchor="middle" x="718" y="-157.4" font-family="Times Roman,serif" font-size="14.00">Print</text>
</g>
<!-- 10830384&#45;&gt;10830192 -->
<g id="edge16" class="edge"><title>10830384&#45;&gt;10830192</title>
<path fill="none" stroke="black" d="M836.235,-218.377C811.469,-206.568 777.556,-190.397 752.399,-178.402"/>
<polygon fill="black" stroke="black" points="753.756,-175.172 743.224,-174.027 750.744,-181.49 753.756,-175.172"/>
</g>
<!-- 10831472 -->
<g id="node22" class="node"><title>10831472</title>
<ellipse fill="none" stroke="black" cx="869" cy="-162" rx="44.945" ry="18"/>
<text text-anchor="middle" x="869" y="-157.4" font-family="Times Roman,serif" font-size="14.00">Update</text>
</g>
<!-- 10830384&#45;&gt;10831472 -->
<g id="edge18" class="edge"><title>10830384&#45;&gt;10831472</title>
<path fill="none" stroke="black" d="M869,-215.831C869,-208.131 869,-198.974 869,-190.417"/>
<polygon fill="black" stroke="black" points="872.5,-190.413 869,-180.413 865.5,-190.413 872.5,-190.413"/>
</g>
<!-- 10832240 -->
<g id="node24" class="node"><title>10832240</title>
<ellipse fill="none" stroke="black" cx="1114" cy="-162" rx="44.945" ry="18"/>
<text text-anchor="middle" x="1114" y="-157.4" font-family="Times Roman,serif" font-size="14.00">Update</text>
</g>
<!-- 10830384&#45;&gt;10832240 -->
<g id="edge20" class="edge"><title>10830384&#45;&gt;10832240</title>
<path fill="none" stroke="black" d="M913.652,-220.878C957.408,-208.019 1023.79,-188.511 1068,-175.518"/>
<polygon fill="black" stroke="black" points="1069.03,-178.865 1077.63,-172.687 1067.05,-172.149 1069.03,-178.865"/>
</g>
<!-- 10830000 -->
<g id="node30" class="node"><title>10830000</title>
<ellipse fill="none" stroke="black" cx="638" cy="-90" rx="59.0322" ry="18"/>
<text text-anchor="middle" x="638" y="-85.4" font-family="Times Roman,serif" font-size="14.00">10830000</text>
</g>
<!-- 10830192&#45;&gt;10830000 -->
<g id="edge30" class="edge"><title>10830192&#45;&gt;10830000</title>
<path fill="none" stroke="black" d="M700.641,-146.377C690.086,-136.877 676.395,-124.555 664.505,-113.855"/>
<polygon fill="black" stroke="black" points="666.778,-111.191 657.003,-107.103 662.095,-116.394 666.778,-111.191"/>
</g>
<!-- 10831184 -->
<g id="node31" class="node"><title>10831184</title>
<ellipse fill="none" stroke="black" cx="781" cy="-90" rx="65.9119" ry="18"/>
<text text-anchor="middle" x="781" y="-85.4" font-family="Times Roman,serif" font-size="14.00">IntAtom: 30</text>
</g>
<!-- 10831472&#45;&gt;10831184 -->
<g id="edge38" class="edge"><title>10831472&#45;&gt;10831184</title>
<path fill="none" stroke="black" d="M849.031,-145.662C837.55,-136.268 822.92,-124.298 810.171,-113.867"/>
<polygon fill="black" stroke="black" points="812.073,-110.901 802.117,-107.277 807.64,-116.319 812.073,-110.901"/>
</g>
<!-- 10830992 -->
<g id="node34" class="node"><title>10830992</title>
<ellipse fill="none" stroke="black" cx="949" cy="-90" rx="84.0232" ry="18"/>
<text text-anchor="middle" x="949" y="-85.4" font-family="Times Roman,serif" font-size="14.00">FunctionAtom:y</text>
</g>
<!-- 10831472&#45;&gt;10830992 -->
<g id="edge36" class="edge"><title>10831472&#45;&gt;10830992</title>
<path fill="none" stroke="black" d="M887.555,-145.301C897.756,-136.12 910.598,-124.562 921.902,-114.388"/>
<polygon fill="black" stroke="black" points="924.338,-116.904 929.43,-107.613 919.655,-111.701 924.338,-116.904"/>
</g>
<!-- 10832032 -->
<g id="node39" class="node"><title>10832032</title>
<ellipse fill="none" stroke="black" cx="1114" cy="-90" rx="63.2261" ry="18"/>
<text text-anchor="middle" x="1114" y="-85.4" font-family="Times Roman,serif" font-size="14.00">UndefAtom</text>
</g>
<!-- 10832240&#45;&gt;10832032 -->
<g id="edge44" class="edge"><title>10832240&#45;&gt;10832032</title>
<path fill="none" stroke="black" d="M1114,-143.831C1114,-136.131 1114,-126.974 1114,-118.417"/>
<polygon fill="black" stroke="black" points="1117.5,-118.413 1114,-108.413 1110.5,-118.413 1117.5,-118.413"/>
</g>
<!-- 10831840 -->
<g id="node41" class="node"><title>10831840</title>
<ellipse fill="none" stroke="black" cx="1313" cy="-90" rx="118.234" ry="18"/>
<text text-anchor="middle" x="1313" y="-85.4" font-family="Times Roman,serif" font-size="14.00">FunctionAtom:program</text>
</g>
<!-- 10832240&#45;&gt;10831840 -->
<g id="edge42" class="edge"><title>10832240&#45;&gt;10831840</title>
<path fill="none" stroke="black" d="M1147.76,-149.786C1177.76,-138.931 1222.2,-122.853 1257.44,-110.104"/>
<polygon fill="black" stroke="black" points="1258.9,-113.297 1267.11,-106.603 1256.52,-106.714 1258.9,-113.297"/>
</g>
<!-- 10830576 -->
<g id="node32" class="node"><title>10830576</title>
<ellipse fill="none" stroke="black" cx="874" cy="-18" rx="65.9119" ry="18"/>
<text text-anchor="middle" x="874" y="-13.4" font-family="Times Roman,serif" font-size="14.00">IntAtom: 20</text>
</g>
<!-- 10830784 -->
<g id="node33" class="node"><title>10830784</title>
<ellipse fill="none" stroke="black" cx="1024" cy="-18" rx="65.9119" ry="18"/>
<text text-anchor="middle" x="1024" y="-13.4" font-family="Times Roman,serif" font-size="14.00">IntAtom: 40</text>
</g>
<!-- 10830992&#45;&gt;10830576 -->
<g id="edge32" class="edge"><title>10830992&#45;&gt;10830576</title>
<path fill="none" stroke="black" d="M930.461,-72.2022C921.128,-63.2425 909.668,-52.2414 899.517,-42.4968"/>
<polygon fill="black" stroke="black" points="901.705,-39.7451 892.067,-35.3446 896.857,-44.7948 901.705,-39.7451"/>
</g>
<!-- 10830992&#45;&gt;10830784 -->
<g id="edge34" class="edge"><title>10830992&#45;&gt;10830784</title>
<path fill="none" stroke="black" d="M967.539,-72.2022C976.872,-63.2425 988.332,-52.2414 998.483,-42.4968"/>
<polygon fill="black" stroke="black" points="1001.14,-44.7948 1005.93,-35.3446 996.295,-39.7451 1001.14,-44.7948"/>
</g>
<!-- 10831648 -->
<g id="node40" class="node"><title>10831648</title>
<ellipse fill="none" stroke="black" cx="1313" cy="-18" rx="53.1641" ry="18"/>
<text text-anchor="middle" x="1313" y="-13.4" font-family="Times Roman,serif" font-size="14.00">SelfAtom</text>
</g>
<!-- 10831840&#45;&gt;10831648 -->
<g id="edge40" class="edge"><title>10831840&#45;&gt;10831648</title>
<path fill="none" stroke="black" d="M1313,-71.8314C1313,-64.131 1313,-54.9743 1313,-46.4166"/>
<polygon fill="black" stroke="black" points="1316.5,-46.4132 1313,-36.4133 1309.5,-46.4133 1316.5,-46.4132"/>
</g>
<!-- 10825536 -->
<g id="node45" class="node"><title>10825536</title>
<ellipse fill="none" stroke="black" cx="448" cy="-450" rx="81.1693" ry="18"/>
<text text-anchor="middle" x="448" y="-445.4" font-family="Times Roman,serif" font-size="14.00">Body Elements</text>
</g>
<!-- 10825536&#45;&gt;10825376 -->
<g id="edge46" class="edge"><title>10825536&#45;&gt;10825376</title>
<path fill="none" stroke="black" d="M368.574,-446.368C289.563,-441.022 165.637,-427.918 63,-396 61.0983,-395.409 59.1739,-394.726 57.2553,-393.979"/>
<polygon fill="black" stroke="black" points="58.4072,-390.662 47.8441,-389.844 55.5911,-397.071 58.4072,-390.662"/>
</g>
<!-- 10825536&#45;&gt;10826832 -->
<g id="edge48" class="edge"><title>10825536&#45;&gt;10826832</title>
<path fill="none" stroke="black" d="M407.641,-434.377C381.051,-424.084 345.9,-410.478 316.794,-399.211"/>
<polygon fill="black" stroke="black" points="317.765,-395.833 307.176,-395.487 315.238,-402.361 317.765,-395.833"/>
</g>
<!-- 10825536&#45;&gt;10829392 -->
<g id="edge50" class="edge"><title>10825536&#45;&gt;10829392</title>
<path fill="none" stroke="black" d="M488.576,-434.377C515.406,-424.047 550.904,-410.379 580.228,-399.089"/>
<polygon fill="black" stroke="black" points="581.84,-402.218 589.915,-395.359 579.325,-395.686 581.84,-402.218"/>
</g>
<!-- 10825536&#45;&gt;10832640 -->
<g id="edge52" class="edge"><title>10825536&#45;&gt;10832640</title>
<path fill="none" stroke="black" d="M521.166,-442.167C594.498,-433.589 710.359,-418.055 809,-396 813.06,-395.092 817.246,-394.054 821.429,-392.944"/>
<polygon fill="black" stroke="black" points="822.427,-396.3 831.128,-390.254 820.556,-389.555 822.427,-396.3"/>
</g>
</g>
</svg>
